<svg xmlns="http://www.w3.org/2000/svg" width="3000" height="1460.799" xml:space="preserve"><title>Internet Movie Database</title><path d="M120.88 432.659c-55.71 0-100.88 45.08-100.88 100.7v805.6c0 55.62 45.17 100.7 100.88 100.7h1898.24c55.71 0 100.88-45.08 100.88-100.7v-805.6c0-55.62-45.17-100.7-100.88-100.7H120.88z" style="clip-rule:evenodd;fill:#fff;fill-rule:evenodd"/><g transform="matrix(1.40952 0 0 1.40952 20 19.801)"><radialGradient gradientUnits="userSpaceOnUse" r="847.355" cy="541.585" cx="1032.27" id="a"><stop style="stop-color:#fcf06e" offset="0"/><stop style="stop-color:#dba506" offset=".99"/></radialGradient><path d="M2100 920.291V86.771c-5.681-44.38-40.28-79.729-84.34-86.63H85.16C36.91 7.701 0 49.371 0 99.661V907.4c0 55.641 45.19 100.74 100.93 100.74H1999.9c51.36.001 93.76-38.299 100.1-87.849z" style="clip-rule:evenodd;fill:url(#a);fill-rule:evenodd"/><radialGradient gradientUnits="userSpaceOnUse" gradientTransform="matrix(1 0 0 .8718 0 1638.777)" r="794.369" cy="-1827.189" cx="1041.999" id="b"><stop style="stop-color:#fff" offset="0"/><stop style="stop-color:#fff;stop-opacity:0" offset="1"/></radialGradient><path d="M90 .5h1920v352.641H90z" style="clip-rule:evenodd;opacity:.4;fill:url(#b);fill-rule:evenodd"/></g><path d="M290 199.141h158.72v611H290z" style="clip-rule:evenodd;fill-rule:evenodd" transform="matrix(1.40952 0 0 1.40952 20 19.801)"/><g style="opacity:.3"><path d="M448.72 199.141v611H290v-611h158.72m14-14H276v639h186.72v-639z" style="fill:#fbfbed" transform="matrix(1.40952 0 0 1.40952 20 19.801)"/></g><path d="m787.22 199.141-36.76 285.44-22.74-155.22c-6.63-49.819-12.97-93.229-19.02-130.22H502.92v611h139.02l.5-403.43 58.51 403.43h99.02l55.51-412.41.5 412.41h138.58v-611H787.22z" style="clip-rule:evenodd;fill-rule:evenodd" transform="matrix(1.40952 0 0 1.40952 20 19.801)"/><g style="opacity:.3"><path d="M994.56 199.141v611H855.98l-.5-412.41-55.51 412.41h-99.02l-58.51-403.43-.5 403.43H502.92v-611H708.7c6.05 36.99 12.39 80.4 19.02 130.22l22.74 155.22 36.76-285.44h207.34m14-14H774.907l-1.573 12.212-23.767 184.553-7.982-54.481c-6.615-49.705-13.031-93.626-19.069-130.543l-1.92-11.74H488.92v639h167.002l.018-13.982.261-211.021 30.894 213.013 1.739 11.991h123.378l1.633-12.132 27.886-207.181.249 205.33.017 13.983H1008.56V185.141z" style="fill:#fbfbed" transform="matrix(1.40952 0 0 1.40952 20 19.801)"/></g><path d="M1242.77 309.101c6.271 3.63 10.291 9.36 12.041 17.13 1.75 7.79 2.64 25.49 2.64 53.11v236.87c0 40.68-2.64 65.59-7.91 74.75-5.271 9.18-19.32 13.75-42.13 13.75v-401.07c17.289 0 29.089 1.82 35.359 5.46zm-1.64 501.04c38.021 0 66.479-2.069 85.38-6.22 18.891-4.14 34.75-11.431 47.61-21.85 12.84-10.421 21.84-24.86 27.01-43.341 5.16-18.449 8.229-55.08 8.229-109.84V414.31c0-57.79-2.26-96.54-5.779-116.26-3.53-19.71-12.34-37.61-26.45-53.69-14.1-16.08-34.7-27.63-61.78-34.66-27.069-7.03-71.27-10.56-148.09-10.56h-118.42v611h192.29z" style="clip-rule:evenodd;fill-rule:evenodd" transform="matrix(1.40952 0 0 1.40952 20 19.801)"/><g style="opacity:.3"><path d="M1167.26 199.141c76.82 0 121.021 3.53 148.09 10.56 27.08 7.03 47.681 18.58 61.78 34.66 14.11 16.08 22.92 33.98 26.45 53.69 3.52 19.72 5.779 58.47 5.779 116.26v214.58c0 54.76-3.069 91.391-8.229 109.84-5.17 18.48-14.17 32.92-27.01 43.341-12.86 10.419-28.72 17.71-47.61 21.85-18.9 4.15-47.359 6.22-85.38 6.22h-192.29v-611h118.42m40.15 505.569c22.81 0 36.859-4.57 42.13-13.75 5.271-9.16 7.91-34.07 7.91-74.75v-236.87c0-27.62-.89-45.32-2.64-53.11-1.75-7.77-5.771-13.5-12.041-17.13-6.27-3.64-18.069-5.46-35.359-5.46v401.07m-40.15-519.57H1034.84v639h206.29c39.415 0 68.325-2.141 88.383-6.545 20.918-4.584 38.894-12.876 53.421-24.646 15.083-12.242 25.738-29.212 31.679-50.447 5.804-20.751 8.747-58.976 8.747-113.611v-214.58c0-55.685-2.074-96.737-5.997-118.72-3.974-22.187-13.969-42.527-29.71-60.464-15.909-18.144-39.053-31.258-68.785-38.977-29.318-7.615-76.077-11.01-151.608-11.01zm54.15 504.798v-371.77c9.699.837 13.287 2.434 14.33 3.039 1.93 1.117 4.272 3.038 5.412 8.099.857 3.814 2.298 15.398 2.298 50.034v236.87c0 53.133-4.627 65.304-6.045 67.768-.311.543-2.918 4.311-15.995 5.96z" style="fill:#fbfbed" transform="matrix(1.40952 0 0 1.40952 20 19.801)"/></g><path d="M1669.85 661.881c0 29.57-1.47 48.25-4.399 56.02-2.94 7.78-15.72 11.69-25.41 11.69-9.45 0-15.75-3.75-18.95-11.28-3.189-7.52-4.771-24.689-4.771-51.529V505.311c0-27.84 1.4-45.19 4.21-52.1 2.801-6.88 8.921-10.34 18.36-10.34 9.68 0 22.671 3.93 25.99 11.83 3.31 7.9 4.97 24.77 4.97 50.59v156.59zm-206.43-462.74v611h142.891l9.89-38.93c12.92 15.65 27.17 27.39 42.76 35.21 15.58 7.819 38.851 11.72 56.84 11.72 25.09 0 46.75-6.59 65-19.75 18.24-13.17 29.84-28.74 34.79-46.68 4.939-17.95 7.41-45.221 7.41-81.86v-171.42c0-36.89-.83-60.97-2.471-72.26-1.659-11.29-6.52-22.83-14.619-34.62-8.11-11.78-19.881-20.94-35.341-27.47-15.449-6.54-33.669-9.8-54.689-9.8-18.24 0-41.62 3.63-57.2 10.83-15.58 7.2-29.699 18.13-42.36 32.78v-198.75H1463.42z" style="clip-rule:evenodd;fill-rule:evenodd" transform="matrix(1.40952 0 0 1.40952 20 19.801)"/><g style="opacity:.3"><path d="M1616.319 199.141v198.75c12.661-14.65 26.78-25.58 42.36-32.78 15.58-7.2 38.96-10.83 57.2-10.83 21.021 0 39.24 3.26 54.689 9.8 15.46 6.53 27.23 15.69 35.341 27.47 8.1 11.79 12.96 23.33 14.619 34.62 1.641 11.29 2.471 35.37 2.471 72.26v171.42c0 36.64-2.471 63.91-7.41 81.86-4.95 17.939-16.55 33.51-34.79 46.68-18.25 13.16-39.91 19.75-65 19.75-17.989 0-41.26-3.9-56.84-11.72-15.59-7.82-29.84-19.56-42.76-35.21l-9.89 38.93H1463.42v-611h152.899m23.721 530.45c9.69 0 22.47-3.91 25.41-11.69 2.93-7.77 4.399-26.449 4.399-56.02v-156.59c0-25.82-1.66-42.69-4.97-50.59-3.319-7.9-16.311-11.83-25.99-11.83-9.439 0-15.56 3.46-18.36 10.34-2.81 6.91-4.21 24.26-4.21 52.1v161.471c0 26.84 1.581 44.01 4.771 51.529 3.2 7.53 9.5 11.28 18.95 11.28m-9.721-544.45H1449.42v639h167.779l2.682-10.553 3.696-14.552c9.169 8.122 18.901 14.779 29.106 19.898 19.421 9.747 46.139 13.206 63.117 13.206 27.957 0 52.581-7.535 73.188-22.395 20.811-15.025 34.299-33.297 40.098-54.311 5.326-19.357 7.914-47.349 7.914-85.584V498.43c0-37.864-.855-62.159-2.616-74.273-1.972-13.416-7.668-27.046-16.935-40.535-9.626-13.981-23.563-24.892-41.433-32.439-17.088-7.233-37.324-10.903-60.137-10.903-16.996 0-43.713 3.174-63.073 12.121-7.811 3.61-15.319 8.077-22.487 13.372V185.141zm9.721 530.45c-4.895 0-5.463-1.339-6.065-2.756-.854-2.015-3.655-11.317-3.655-46.054v-161.47c0-36.195 2.434-44.993 3.179-46.827.26-.637.424-.729.597-.827.327-.185 1.64-.786 4.795-.786 6.291 0 11.826 2.321 13.241 3.653 1.232 3.274 3.719 13.748 3.719 44.768v156.59c0 35.31-2.144 46.825-3.28 50.443-1.54 1.235-6.737 3.266-12.531 3.266z" style="fill:#fbfbed" transform="matrix(1.40952 0 0 1.40952 20 19.801)"/></g></svg>/g></g></g></svg>