<svg width="300" height="442" xmlns="http://www.w3.org/2000/svg">
    <path style="fill:#999;stroke-width:27.4583;stroke-linecap:round;stroke-linejoin:round;stroke-dasharray:27.4583,109.833" d="M0 0h300v442H0z"/>
    <g style="fill:#e6e6e6">
        <g aria-label="Cannot generate thumbnail" style="font-weight:500;font-size:16px;font-family:Poppins;-inkscape-font-specification:'Poppins, Medium'">
            <path d="M37.832 219.4q0-1.632.752-2.928.768-1.296 2.064-2.016 1.312-.736 2.864-.736 1.776 0 3.152.88 1.392.864 2.016 2.464h-2.192q-.432-.88-1.2-1.312-.768-.432-1.776-.432-1.104 0-1.968.496-.864.496-1.36 1.424-.48.928-.48 2.16 0 1.232.48 2.16.496.928 1.36 1.44.864.496 1.968.496 1.008 0 1.776-.432t1.2-1.312h2.192q-.624 1.6-2.016 2.464-1.376.864-3.152.864-1.568 0-2.864-.72-1.296-.736-2.064-2.032-.752-1.296-.752-2.928zM50.2 220.536q0-1.328.544-2.352.56-1.024 1.504-1.584.96-.576 2.112-.576 1.04 0 1.808.416.784.4 1.248 1.008v-1.28h1.84v8.816h-1.84v-1.312q-.464.624-1.264 1.04-.8.416-1.824.416-1.136 0-2.08-.576-.944-.592-1.504-1.632-.544-1.056-.544-2.384zm7.216.032q0-.912-.384-1.584-.368-.672-.976-1.024t-1.312-.352q-.704 0-1.312.352-.608.336-.992 1.008-.368.656-.368 1.568t.368 1.6q.384.688.992 1.056.624.352 1.312.352.704 0 1.312-.352.608-.352.976-1.024.384-.688.384-1.6zM66.104 216.024q1.04 0 1.856.432.832.432 1.296 1.28.464.848.464 2.048v5.2h-1.808v-4.928q0-1.184-.592-1.808-.592-.64-1.616-.64t-1.632.64q-.592.624-.592 1.808v4.928h-1.824v-8.816h1.824v1.008q.448-.544 1.136-.848.704-.304 1.488-.304zM76.488 216.024q1.04 0 1.856.432.832.432 1.296 1.28.464.848.464 2.048v5.2h-1.808v-4.928q0-1.184-.592-1.808-.592-.64-1.616-.64t-1.632.64q-.592.624-.592 1.808v4.928H72.04v-8.816h1.824v1.008q.448-.544 1.136-.848.704-.304 1.488-.304zM86.248 225.128q-1.248 0-2.256-.56-1.008-.576-1.584-1.6-.576-1.04-.576-2.4 0-1.344.592-2.384.592-1.04 1.616-1.6t2.288-.56q1.264 0 2.288.56 1.024.56 1.616 1.6.592 1.04.592 2.384 0 1.344-.608 2.384-.608 1.04-1.664 1.616-1.04.56-2.304.56zm0-1.584q.704 0 1.312-.336.624-.336 1.008-1.008.384-.672.384-1.632 0-.96-.368-1.616-.368-.672-.976-1.008-.608-.336-1.312-.336-.704 0-1.312.336-.592.336-.944 1.008-.352.656-.352 1.616 0 1.424.72 2.208.736.768 1.84.768zM94.76 217.656v4.88q0 .496.224.72.24.208.8.208h1.12v1.52h-1.44q-1.232 0-1.888-.576-.656-.576-.656-1.872v-4.88h-1.04v-1.488h1.04v-2.192h1.84v2.192h2.144v1.488zM106.296 216.024q1.024 0 1.808.416.8.4 1.248 1.008v-1.28h1.84v8.96q0 1.216-.512 2.16-.512.96-1.488 1.504-.96.544-2.304.544-1.792 0-2.976-.848-1.184-.832-1.344-2.272h1.808q.208.688.88 1.104.688.432 1.632.432 1.104 0 1.776-.672.688-.672.688-1.952v-1.472q-.464.624-1.264 1.056-.784.416-1.792.416-1.152 0-2.112-.576-.944-.592-1.504-1.632-.544-1.056-.544-2.384 0-1.328.544-2.352.56-1.024 1.504-1.584.96-.576 2.112-.576zm3.056 4.544q0-.912-.384-1.584-.368-.672-.976-1.024t-1.312-.352q-.704 0-1.312.352-.608.336-.992 1.008-.368.656-.368 1.568t.368 1.6q.384.688.992 1.056.624.352 1.312.352.704 0 1.312-.352.608-.352.976-1.024.384-.688.384-1.6zM121.672 220.36q0 .496-.064.896h-6.736q.08 1.056.784 1.696.704.64 1.728.64 1.472 0 2.08-1.232h1.968q-.4 1.216-1.456 2-1.04.768-2.592.768-1.264 0-2.272-.56-.992-.576-1.568-1.6-.56-1.04-.56-2.4 0-1.36.544-2.384.56-1.04 1.552-1.6 1.008-.56 2.304-.56 1.248 0 2.224.544.976.544 1.52 1.536.544.976.544 2.256zm-1.904-.576q-.016-1.008-.72-1.616-.704-.608-1.744-.608-.944 0-1.616.608-.672.592-.8 1.616zM127.912 216.024q1.04 0 1.856.432.832.432 1.296 1.28.464.848.464 2.048v5.2h-1.808v-4.928q0-1.184-.592-1.808-.592-.64-1.616-.64t-1.632.64q-.592.624-.592 1.808v4.928h-1.824v-8.816h1.824v1.008q.448-.544 1.136-.848.704-.304 1.488-.304zM141.928 220.36q0 .496-.064.896h-6.736q.08 1.056.784 1.696.704.64 1.728.64 1.472 0 2.08-1.232h1.968q-.4 1.216-1.456 2-1.04.768-2.592.768-1.264 0-2.272-.56-.992-.576-1.568-1.6-.56-1.04-.56-2.4 0-1.36.544-2.384.56-1.04 1.552-1.6 1.008-.56 2.304-.56 1.248 0 2.224.544.976.544 1.52 1.536.544.976.544 2.256zm-1.904-.576q-.016-1.008-.72-1.616-.704-.608-1.744-.608-.944 0-1.616.608-.672.592-.8 1.616zM145.544 217.448q.4-.672 1.056-1.04.672-.384 1.584-.384v1.888h-.464q-1.072 0-1.632.544-.544.544-.544 1.888v4.64h-1.824v-8.816h1.824zM149.256 220.536q0-1.328.544-2.352.56-1.024 1.504-1.584.96-.576 2.112-.576 1.04 0 1.808.416.784.4 1.248 1.008v-1.28h1.84v8.816h-1.84v-1.312q-.464.624-1.264 1.04-.8.416-1.824.416-1.136 0-2.08-.576-.944-.592-1.504-1.632-.544-1.056-.544-2.384zm7.216.032q0-.912-.384-1.584-.368-.672-.976-1.024t-1.312-.352q-.704 0-1.312.352-.608.336-.992 1.008-.368.656-.368 1.568t.368 1.6q.384.688.992 1.056.624.352 1.312.352.704 0 1.312-.352.608-.352.976-1.024.384-.688.384-1.6zM162.84 217.656v4.88q0 .496.224.72.24.208.8.208h1.12v1.52h-1.44q-1.232 0-1.888-.576-.656-.576-.656-1.872v-4.88h-1.04v-1.488H161v-2.192h1.84v2.192h2.144v1.488zM174.744 220.36q0 .496-.064.896h-6.736q.08 1.056.784 1.696.704.64 1.728.64 1.472 0 2.08-1.232h1.968q-.4 1.216-1.456 2-1.04.768-2.592.768-1.264 0-2.272-.56-.992-.576-1.568-1.6-.56-1.04-.56-2.4 0-1.36.544-2.384.56-1.04 1.552-1.6 1.008-.56 2.304-.56 1.248 0 2.224.544.976.544 1.52 1.536.544.976.544 2.256zm-1.904-.576q-.016-1.008-.72-1.616-.704-.608-1.744-.608-.944 0-1.616.608-.672.592-.8 1.616zM182.824 217.656v4.88q0 .496.224.72.24.208.8.208h1.12v1.52h-1.44q-1.232 0-1.888-.576-.656-.576-.656-1.872v-4.88h-1.04v-1.488h1.04v-2.192h1.84v2.192h2.144v1.488zM191.208 216.024q1.008 0 1.792.432.8.432 1.248 1.28.464.848.464 2.048v5.2h-1.808v-4.928q0-1.184-.592-1.808-.592-.64-1.616-.64t-1.632.64q-.592.624-.592 1.808v4.928h-1.824v-11.84h1.824v4.048q.464-.56 1.168-.864.72-.304 1.568-.304zM205.016 216.168v8.816h-1.824v-1.04q-.432.544-1.136.864-.688.304-1.472.304-1.04 0-1.872-.432-.816-.432-1.296-1.28-.464-.848-.464-2.048v-5.184h1.808v4.912q0 1.184.592 1.824.592.624 1.616.624t1.616-.624q.608-.64.608-1.824v-4.912zM218.088 216.024q1.04 0 1.856.432.832.432 1.296 1.28.48.848.48 2.048v5.2h-1.808v-4.928q0-1.184-.592-1.808-.592-.64-1.616-.64t-1.632.64q-.592.624-.592 1.808v4.928h-1.808v-4.928q0-1.184-.592-1.808-.592-.64-1.616-.64t-1.632.64q-.592.624-.592 1.808v4.928h-1.824v-8.816h1.824v1.008q.448-.544 1.136-.848.688-.304 1.472-.304 1.056 0 1.888.448.832.448 1.28 1.296.4-.8 1.248-1.264.848-.48 1.824-.48zM225.864 217.48q.464-.64 1.264-1.04.816-.416 1.808-.416 1.168 0 2.112.56.944.56 1.488 1.6.544 1.024.544 2.352 0 1.328-.544 2.384-.544 1.04-1.504 1.632-.944.576-2.096.576-1.024 0-1.824-.4-.784-.4-1.248-1.024v1.28h-1.824v-11.84h1.824zm5.36 3.056q0-.912-.384-1.568-.368-.672-.992-1.008-.608-.352-1.312-.352-.688 0-1.312.352-.608.352-.992 1.024-.368.672-.368 1.584t.368 1.6q.384.672.992 1.024.624.352 1.312.352.704 0 1.312-.352.624-.368.992-1.056.384-.688.384-1.6zM239.336 216.024q1.04 0 1.856.432.832.432 1.296 1.28.464.848.464 2.048v5.2h-1.808v-4.928q0-1.184-.592-1.808-.592-.64-1.616-.64t-1.632.64q-.592.624-.592 1.808v4.928h-1.824v-8.816h1.824v1.008q.448-.544 1.136-.848.704-.304 1.488-.304zM244.664 220.536q0-1.328.544-2.352.56-1.024 1.504-1.584.96-.576 2.112-.576 1.04 0 1.808.416.784.4 1.248 1.008v-1.28h1.84v8.816h-1.84v-1.312q-.464.624-1.264 1.04-.8.416-1.824.416-1.136 0-2.08-.576-.944-.592-1.504-1.632-.544-1.056-.544-2.384zm7.216.032q0-.912-.384-1.584-.368-.672-.976-1.024t-1.312-.352q-.704 0-1.312.352-.608.336-.992 1.008-.368.656-.368 1.568t.368 1.6q.384.688.992 1.056.624.352 1.312.352.704 0 1.312-.352.608-.352.976-1.024.384-.688.384-1.6zM257.048 215q-.496 0-.832-.336-.336-.336-.336-.832 0-.496.336-.832.336-.336.832-.336.48 0 .816.336.336.336.336.832 0 .496-.336.832-.336.336-.816.336zm.896 1.168v8.816h-1.824v-8.816zM262.168 213.144v11.84h-1.824v-11.84z"/>
        </g>
    </g>
</svg>
